Coordinates
version=1
nRows=16
nColumns=63
inDegrees=yes

Units are S.I. units (second, meters, Newtons, ...)
If the header above contains a line with 'inDegrees', this indicates whether rotational values are in degrees (yes) or radians (no).

endheader
time	pelvis_tilt	pelvis_list	pelvis_rotation	pelvis_tx	pelvis_ty	pelvis_tz	hip_flexion_r	hip_adduction_r	hip_rotation_r	knee_angle_r	knee_angle_r_beta	ankle_angle_r	subtalar_angle_r	mtp_angle_r	hip_flexion_l	hip_adduction_l	hip_rotation_l	knee_angle_l	knee_angle_l_beta	ankle_angle_l	subtalar_angle_l	mtp_angle_l	L5_S1_Flex_Ext	L5_S1_Lat_Bending	L5_S1_axial_rotation	L4_L5_Flex_Ext	L4_L5_Lat_Bending	L4_L5_axial_rotation	L3_L4_Flex_Ext	L3_L4_Lat_Bending	L3_L4_axial_rotation	L2_L3_Flex_Ext	L2_L3_Lat_Bending	L2_L3_axial_rotation	L1_L2_Flex_Ext	L1_L2_Lat_Bending	L1_L2_axial_rotation	L1_T12_Flex_Ext	L1_T12_Lat_Bending	L1_T12_axial_rotation	Abs_r3	Abs_r2	Abs_r1	Abs_t1	Abs_t2	neck_flexion	neck_bending	neck_rotation	arm_flex_r	arm_add_r	arm_rot_r	elbow_flex_r	pro_sup_r	wrist_flex_r	wrist_dev_r	arm_flex_l	arm_add_l	arm_rot_l	elbow_flex_l	pro_sup_l	wrist_flex_l	wrist_dev_l
0.000000	3.655888	-3.377020	99.143938	0.209423	0.950013	0.402184	-7.399606	5.743933	-18.813880	1.303887	0.022757	12.334871	-0.929398	0.000000	-5.143350	-3.412156	-5.426884	1.303268	0.022746	24.987526	10.591978	0.000000	0.150088	0.390777	-1.465131	0.278728	0.519733	-1.556702	0.246579	0.950135	-1.556702	0.171535	0.950135	-1.281990	0.139372	0.796872	-1.190419	0.085760	0.605313	-1.098849	1.072063	4.420546	-8.148621	0.000000	0.000000	13.019830	1.638014	1.065534	20.460642	-14.546964	71.379544	57.614114	11.686646	-5.044840	21.450131	18.069421	-10.990251	61.234982	56.144392	89.274642	-2.378824	-0.333870
0.016667	3.427277	-3.430733	99.992271	0.208630	0.949573	0.404308	-7.210966	5.566078	-19.504061	1.577567	0.027534	12.953296	-1.360063	0.000000	-4.634211	-3.273134	-5.132377	2.019616	0.035249	25.461427	11.010346	0.000000	0.129670	0.362843	-1.620151	0.240811	0.482581	-1.721411	0.213036	0.882216	-1.721411	0.148200	0.882216	-1.417632	0.120412	0.739909	-1.316373	0.074094	0.562044	-1.215113	0.926223	4.104551	-9.010795	0.000000	0.000000	13.243841	1.985178	1.811184	20.786314	-14.199728	71.083647	56.391186	18.315789	-0.188725	20.806273	18.272997	-11.227182	61.184228	56.360683	89.250146	-1.647581	-0.403505
0.033333	3.261110	-3.464200	100.675227	0.208014	0.949184	0.406008	-7.065812	5.445103	-20.027501	1.784657	0.031148	13.529159	-1.633659	0.000000	-4.239726	-3.184515	-4.896812	2.589785	0.045200	25.866396	11.346607	0.000000	0.113765	0.342593	-1.750863	0.211273	0.455649	-1.860292	0.186904	0.832980	-1.860292	0.130022	0.832980	-1.532005	0.105642	0.698616	-1.422576	0.065005	0.530676	-1.313147	0.812612	3.875480	-9.737776	0.000000	0.000000	13.459665	2.297094	2.460343	21.124370	-13.901065	70.933467	55.360209	24.556082	3.878732	20.045686	18.396943	-11.414486	61.031350	56.551065	89.225997	-0.971728	-0.341031
0.050000	3.151108	-3.479139	101.205312	0.207561	0.948844	0.407318	-6.960850	5.374937	-20.397318	1.931725	0.033715	14.062091	-1.769317	0.000000	-3.950828	-3.140716	-4.714062	3.025824	0.052811	26.206217	11.604065	0.000000	0.101990	0.329267	-1.858717	0.189406	0.437925	-1.974887	0.167560	0.800580	-1.974887	0.116565	0.800580	-1.626377	0.094708	0.671442	-1.510208	0.058277	0.510035	-1.394038	0.728507	3.724736	-10.337627	0.000000	0.000000	13.664340	2.572578	3.015544	21.467202	-13.647654	70.904966	54.506417	30.424674	7.225138	19.188232	18.450039	-11.556554	60.791908	56.716761	89.202397	-0.352128	-0.165257
0.066667	3.090991	-3.477271	101.595033	0.207258	0.948550	0.408271	-6.892786	5.349509	-20.626631	2.025336	0.035349	14.551726	-1.786172	0.000000	-3.758448	-3.136156	-4.578004	3.339783	0.058290	26.484678	11.786024	0.000000	0.093966	0.322106	-1.945162	0.174504	0.428401	-2.066734	0.154376	0.783168	-2.066734	0.107393	0.783168	-1.702017	0.087256	0.656838	-1.580444	0.053692	0.498942	-1.458871	0.671187	3.643725	-10.818407	0.000000	0.000000	13.854899	2.810450	3.479317	21.807200	-13.436173	70.974108	53.815043	35.938710	9.918103	18.253773	18.441068	-11.657776	60.481462	56.858989	89.179545	0.210352	0.105009
0.083333	3.074479	-3.460313	101.856897	0.207093	0.948299	0.408900	-6.858325	5.362747	-20.728557	2.072054	0.036164	14.997693	-1.703354	0.000000	-3.653518	-3.165254	-4.482513	3.543712	0.061849	26.705564	11.895785	0.000000	0.089310	0.320349	-2.011647	0.165857	0.426064	-2.137375	0.146727	0.778896	-2.137375	0.102072	0.778896	-1.760191	0.082933	0.653255	-1.634463	0.051032	0.496220	-1.508735	0.637930	3.623848	-11.188176	0.000000	0.000000	14.028377	3.009525	3.854192	22.136753	-13.263304	71.116852	53.271321	41.115339	12.025232	17.262170	18.378808	-11.722543	60.115572	56.978970	89.157643	0.714849	0.450957
0.100000	3.095291	-3.429987	102.003411	0.207052	0.948089	0.409238	-6.854173	5.408579	-20.716216	2.078446	0.036276	15.399625	-1.539998	0.000000	-3.626969	-3.222428	-4.421464	3.649660	0.063699	26.872660	11.936653	0.000000	0.087642	0.323236	-2.059621	0.162759	0.429904	-2.188348	0.143986	0.785916	-2.188348	0.100165	0.785916	-1.802169	0.081384	0.659143	-1.673442	0.050078	0.500693	-1.544716	0.626014	3.656512	-11.454996	0.000000	0.000000	14.181810	3.168621	4.142700	22.448252	-13.125725	71.309164	52.860483	45.971706	13.614136	16.233286	18.272043	-11.755245	59.709799	57.077925	89.136891	1.160496	0.853778
0.116667	3.147148	-3.388010	102.047081	0.207123	0.947917	0.409319	-6.877037	5.480934	-20.602725	2.051078	0.035798	15.757154	-1.315235	0.000000	-3.669734	-3.302097	-4.388734	3.669677	0.064048	26.989753	11.911930	0.000000	0.088580	0.330008	-2.090535	0.164502	0.438911	-2.221193	0.145528	0.802382	-2.221193	0.101238	0.802382	-1.829218	0.082255	0.672953	-1.698559	0.050615	0.511183	-1.567901	0.632718	3.733119	-11.626926	0.000000	0.000000	14.312233	3.286557	4.347373	22.734088	-13.020116	71.527003	52.567764	50.524959	14.752421	15.186982	18.129552	-11.760274	59.279703	57.157074	89.117490	1.546429	1.294663
0.133333	3.223770	-3.336102	102.000415	0.207292	0.947782	0.409174	-6.923622	5.573740	-20.401203	1.996515	0.034846	16.069911	-1.048198	0.000000	-3.772743	-3.398679	-4.378197	3.615813	0.063108	27.060629	11.824921	0.000000	0.091744	0.339905	-2.105836	0.170378	0.452074	-2.237451	0.150727	0.826445	-2.237451	0.104854	0.826445	-1.842606	0.085194	0.693134	-1.710992	0.052423	0.526513	-1.579377	0.655320	3.845074	-11.712028	0.000000	0.000000	14.416681	3.362148	4.470741	22.986650	-12.943156	71.746334	52.378397	54.792246	15.507695	14.143120	17.960116	-11.742020	58.840845	57.217637	89.099640	1.871783	1.754802
0.150000	3.318876	-3.275983	101.875920	0.207546	0.947681	0.408838	-6.990634	5.680927	-20.124768	1.921322	0.033533	16.337529	-0.758020	0.000000	-3.926930	-3.506593	-4.383729	3.500118	0.061089	27.089073	11.678927	0.000000	0.096753	0.352167	-2.106975	0.179680	0.468382	-2.238661	0.158956	0.856258	-2.238661	0.110579	0.856258	-1.843603	0.089845	0.718138	-1.711917	0.055285	0.545506	-1.580231	0.691098	3.983780	-11.718361	0.000000	0.000000	14.492188	3.394213	4.515334	23.198330	-12.891525	71.943118	52.277615	58.790712	15.947568	13.121562	17.772516	-11.704874	58.408784	57.260834	89.083543	2.135693	2.215387
0.166667	3.426186	-3.209371	101.686103	0.207873	0.947610	0.408343	-7.074780	5.796421	-19.786539	1.832065	0.031976	16.559638	-0.463833	0.000000	-4.123225	-3.620257	-4.399206	3.334640	0.058200	27.078871	11.477252	0.000000	0.103225	0.366033	-2.095400	0.191700	0.486824	-2.226362	0.169589	0.889973	-2.226362	0.117976	0.889973	-1.833475	0.095855	0.746415	-1.702512	0.058983	0.566986	-1.571550	0.737329	4.140642	-11.653986	0.000000	0.000000	14.535790	3.381568	4.483684	23.361517	-12.861902	72.093317	52.250652	62.537505	16.139645	12.142170	17.575533	-11.653226	57.999081	57.287885	89.069398	2.337294	2.657609
0.183333	3.532395	-3.136492	101.452357	0.208270	0.947581	0.407720	-7.177581	5.908045	-19.338975	1.736835	0.030313	16.688201	-0.315250	0.000000	-4.342893	-3.730807	-4.474030	3.148607	0.054954	27.067368	11.330532	0.000000	0.110943	0.379355	-2.074427	0.206033	0.504543	-2.204079	0.182269	0.922365	-2.204079	0.126797	0.922365	-1.815124	0.103022	0.773582	-1.685472	0.063393	0.587622	-1.555820	0.792457	4.291345	-11.537340	0.000000	0.000000	14.504701	3.303475	4.325028	23.497698	-12.829156	72.274297	52.208991	66.173027	16.294204	11.249892	17.402418	-11.614035	57.717024	57.287962	89.061025	2.433554	2.987806
0.200000	3.635775	-3.050020	101.150879	0.208741	0.947572	0.406976	-7.307470	6.015909	-18.788574	1.640284	0.028628	16.773439	-0.297620	0.000000	-4.613692	-3.830012	-4.553159	2.926473	0.051077	26.994160	11.073810	0.000000	0.119372	0.392543	-2.028045	0.221685	0.522083	-2.154798	0.196115	0.954430	-2.154798	0.136430	0.954430	-1.774540	0.110848	0.800474	-1.647787	0.068209	0.608050	-1.521034	0.852659	4.440529	-11.279379	0.000000	0.000000	14.407867	3.140102	4.040476	23.562899	-12.826819	72.255982	52.279361	69.769888	16.249146	10.415053	17.280845	-11.533476	57.588464	57.217719	89.055978	2.343038	3.203623
0.216667	3.728036	-2.964856	100.837587	0.209265	0.947575	0.406210	-7.439665	6.112253	-18.272741	1.557423	0.027182	16.831386	-0.276622	0.000000	-4.898213	-3.913874	-4.464699	2.687434	0.046905	26.855199	10.578936	0.000000	0.128568	0.403792	-1.969496	0.238764	0.537044	-2.092589	0.211225	0.981780	-2.092589	0.146941	0.981780	-1.723309	0.119389	0.823413	-1.600215	0.073464	0.625474	-1.477122	0.918351	4.567778	-10.953746	0.000000	0.000000	14.266736	2.935220	3.677913	23.516826	-12.810719	71.977170	52.224649	73.585010	16.731528	9.929359	17.216470	-11.454701	57.574152	57.132494	89.054801	2.216830	3.388309
0.233333	3.802802	-2.888174	100.537524	0.209782	0.947586	0.405480	-7.562640	6.188067	-17.856312	1.494550	0.026085	16.878032	-0.219163	0.000000	-5.169601	-3.977014	-4.297189	2.459354	0.042924	26.678934	9.984639	0.000000	0.138245	0.412941	-1.909230	0.256735	0.549211	-2.028557	0.227123	1.004025	-2.028557	0.158001	1.004025	-1.670576	0.128375	0.842069	-1.551249	0.078993	0.639645	-1.431923	0.987472	4.671270	-10.618565	0.000000	0.000000	14.092966	2.683912	3.273956	23.368419	-12.810032	71.498269	52.183117	77.060569	17.164554	9.624212	17.184943	-11.384543	57.617244	57.041875	89.063316	2.070209	3.517645
0.250000	3.858555	-2.818495	100.250981	0.210267	0.947615	0.404819	-7.672751	6.237575	-17.541438	1.459369	0.025471	16.913648	-0.115729	0.000000	-5.419656	-4.018735	-4.147977	2.256094	0.039376	26.501119	9.415932	0.000000	0.146481	0.420873	-1.854087	0.272029	0.559761	-1.969967	0.240653	1.023311	-1.969967	0.167413	1.023311	-1.622326	0.136022	0.858244	-1.506445	0.083699	0.651932	-1.390565	1.046297	4.761001	-10.311873	0.000000	0.000000	13.907934	2.397566	2.904924	23.121163	-12.824583	70.798355	52.186889	80.169965	17.502770	9.400370	17.160645	-11.343092	57.686244	56.977943	89.087045	1.807018	3.533441
